<mxfile host="app.diagrams.net" agent="Mozilla/5.0 (Macintosh; Intel Mac OS X 10.15; rv:130.0) Gecko/20100101 Firefox/130.0" version="24.7.12">
  <diagram name="Page-1" id="3yo-dhn3EtV1WeyHciR1">
    <mxGraphModel dx="1737" dy="603" grid="1" gridSize="10" guides="1" tooltips="1" connect="1" arrows="1" fold="1" page="1" pageScale="1" pageWidth="850" pageHeight="1100" math="0" shadow="0">
      <root>
        <mxCell id="0" />
        <mxCell id="1" parent="0" />
        <mxCell id="eaqs0rHiO7ZTEkpr7RdJ-3" value="Start" style="ellipse;whiteSpace=wrap;html=1;" vertex="1" parent="1">
          <mxGeometry x="-780" y="90" width="120" height="80" as="geometry" />
        </mxCell>
        <mxCell id="eaqs0rHiO7ZTEkpr7RdJ-4" value="Read W04B_current_date.txt into vector Date" style="shape=parallelogram;perimeter=parallelogramPerimeter;whiteSpace=wrap;html=1;fixedSize=1;" vertex="1" parent="1">
          <mxGeometry x="-780" y="360" width="120" height="60" as="geometry" />
        </mxCell>
        <mxCell id="eaqs0rHiO7ZTEkpr7RdJ-5" value="current_month = Date(1)" style="rounded=0;whiteSpace=wrap;html=1;" vertex="1" parent="1">
          <mxGeometry x="-780" y="460" width="120" height="60" as="geometry" />
        </mxCell>
        <mxCell id="eaqs0rHiO7ZTEkpr7RdJ-6" value="current_day = Date(2)" style="rounded=0;whiteSpace=wrap;html=1;" vertex="1" parent="1">
          <mxGeometry x="-630" y="460" width="120" height="60" as="geometry" />
        </mxCell>
        <mxCell id="eaqs0rHiO7ZTEkpr7RdJ-7" value="current_year = Date(3)" style="rounded=0;whiteSpace=wrap;html=1;" vertex="1" parent="1">
          <mxGeometry x="-480" y="460" width="120" height="60" as="geometry" />
        </mxCell>
        <mxCell id="eaqs0rHiO7ZTEkpr7RdJ-10" value="Prompt user for test name" style="strokeWidth=2;html=1;shape=mxgraph.flowchart.delay;whiteSpace=wrap;" vertex="1" parent="1">
          <mxGeometry x="-770" y="200" width="100" height="60" as="geometry" />
        </mxCell>
        <mxCell id="eaqs0rHiO7ZTEkpr7RdJ-11" value="Prompt user for end month, day, and year" style="strokeWidth=2;html=1;shape=mxgraph.flowchart.delay;whiteSpace=wrap;" vertex="1" parent="1">
          <mxGeometry x="-470" y="360" width="100" height="60" as="geometry" />
        </mxCell>
        <mxCell id="eaqs0rHiO7ZTEkpr7RdJ-13" value="Calculate time between start and end days" style="shape=process;whiteSpace=wrap;html=1;backgroundOutline=1;" vertex="1" parent="1">
          <mxGeometry x="-480" y="200" width="120" height="60" as="geometry" />
        </mxCell>
        <mxCell id="eaqs0rHiO7ZTEkpr7RdJ-14" value="Test name" style="html=1;strokeWidth=2;shape=manualInput;whiteSpace=wrap;rounded=1;size=26;arcSize=11;" vertex="1" parent="1">
          <mxGeometry x="-750" y="270" width="65" height="40" as="geometry" />
        </mxCell>
        <mxCell id="eaqs0rHiO7ZTEkpr7RdJ-15" value="Ending day, month, year" style="html=1;strokeWidth=2;shape=manualInput;whiteSpace=wrap;rounded=1;size=26;arcSize=11;" vertex="1" parent="1">
          <mxGeometry x="-455" y="300" width="70" height="40" as="geometry" />
        </mxCell>
        <mxCell id="eaqs0rHiO7ZTEkpr7RdJ-17" value="Display results" style="shape=step;perimeter=stepPerimeter;whiteSpace=wrap;html=1;fixedSize=1;" vertex="1" parent="1">
          <mxGeometry x="-480" y="90" width="120" height="80" as="geometry" />
        </mxCell>
      </root>
    </mxGraphModel>
  </diagram>
</mxfile>
